<svg width="135" height="41" viewBox="0 0 135 41" fill="none" xmlns="http://www.w3.org/2000/svg">
<rect x="0.5" y="1.24414" width="134" height="39" rx="7.5" fill="black"/>
<rect x="0.5" y="1.24414" width="134" height="39" rx="7.5" stroke="#999999"/>
<path d="M88.5542 19.9455V22.2365H87.1182V23.7389H88.5542V28.8439C88.5542 30.5871 89.3428 31.2844 91.3267 31.2844C91.6753 31.2844 92.0074 31.2429 92.2979 31.193V29.7072C92.0489 29.7321 91.8912 29.7487 91.6172 29.7487C90.7291 29.7487 90.3389 29.3337 90.3389 28.3874V23.7389H92.2979V22.2365H90.3389V19.9455H88.5542Z" fill="#FEFEFE"/>
<path d="M97.3517 31.4089C99.9914 31.4089 101.61 29.6408 101.61 26.7106C101.61 23.7971 99.9831 22.0207 97.3517 22.0207C94.7121 22.0207 93.0851 23.7971 93.0851 26.7106C93.0851 29.6408 94.7038 31.4089 97.3517 31.4089ZM97.3517 29.8234C95.7995 29.8234 94.9279 28.6862 94.9279 26.7106C94.9279 24.7516 95.7995 23.6061 97.3517 23.6061C98.8957 23.6061 99.7756 24.7516 99.7756 26.7106C99.7756 28.6779 98.8957 29.8234 97.3517 29.8234Z" fill="#FEFEFE"/>
<path d="M102.995 31.2346H104.78V25.8971C104.78 24.6271 105.734 23.7721 107.087 23.7721C107.403 23.7721 107.934 23.8303 108.083 23.8801V22.1203C107.892 22.0705 107.552 22.0456 107.286 22.0456C106.108 22.0456 105.103 22.693 104.846 23.5812H104.713V22.195H102.995V31.2346Z" fill="#FEFEFE"/>
<path d="M112.515 23.5397C113.834 23.5397 114.698 24.4611 114.739 25.8805H110.174C110.273 24.4694 111.195 23.5397 112.515 23.5397ZM114.731 28.7941C114.399 29.4997 113.66 29.8898 112.581 29.8898C111.153 29.8898 110.232 28.8854 110.174 27.3V27.2004H116.557V26.5778C116.557 23.7389 115.038 22.0207 112.523 22.0207C109.975 22.0207 108.356 23.8552 108.356 26.7438C108.356 29.6325 109.941 31.4089 112.531 31.4089C114.598 31.4089 116.042 30.4128 116.449 28.7941H114.731Z" fill="#FEFEFE"/>
<path d="M76.8507 27.8964C76.9883 30.1161 78.8381 31.5357 81.5912 31.5357C84.5336 31.5357 86.3748 30.0473 86.3748 27.6727C86.3748 25.8057 85.3251 24.7733 82.7785 24.1797L81.4105 23.8441C79.7931 23.4656 79.1392 22.958 79.1392 22.0718C79.1392 20.9533 80.1544 20.2221 81.6772 20.2221C83.1226 20.2221 84.1206 20.9361 84.3013 22.0804H86.1769C86.065 19.9898 84.2239 18.5186 81.703 18.5186C78.9929 18.5186 77.1862 19.9898 77.1862 22.2009C77.1862 24.0248 78.21 25.1088 80.4555 25.6337L82.0558 26.0208C83.6991 26.408 84.4218 26.9758 84.4218 27.9222C84.4218 29.0234 83.2861 29.8236 81.7375 29.8236C80.077 29.8236 78.9241 29.0751 78.7606 27.8964H76.8507Z" fill="#FEFEFE"/>
<path d="M58.3633 22.0456C57.1348 22.0456 56.0723 22.6598 55.5245 23.6891H55.3917V22.195H53.6734V34.2394H55.4581V29.8649H55.5992C56.0723 30.8195 57.0933 31.384 58.3799 31.384C60.6626 31.384 62.1153 29.5827 62.1153 26.7106C62.1153 23.8386 60.6626 22.0456 58.3633 22.0456ZM57.857 29.7819C56.3628 29.7819 55.4249 28.6032 55.4249 26.7189C55.4249 24.8263 56.3628 23.6476 57.8653 23.6476C59.376 23.6476 60.2808 24.8014 60.2808 26.7106C60.2808 28.6281 59.376 29.7819 57.857 29.7819Z" fill="#FEFEFE"/>
<path d="M68.3601 22.0456C67.1316 22.0456 66.0691 22.6598 65.5213 23.6891H65.3884V22.195H63.6702V34.2394H65.4549V29.8649H65.596C66.0691 30.8195 67.0901 31.384 68.3767 31.384C70.6594 31.384 72.1121 29.5827 72.1121 26.7106C72.1121 23.8386 70.6594 22.0456 68.3601 22.0456ZM67.8538 29.7819C66.3596 29.7819 65.4216 28.6032 65.4216 26.7189C65.4216 24.8263 66.3596 23.6476 67.8621 23.6476C69.3728 23.6476 70.2776 24.8014 70.2776 26.7106C70.2776 28.6281 69.3728 29.7819 67.8538 29.7819Z" fill="#FEFEFE"/>
<path d="M50.4714 31.2346H52.519L48.0366 18.8197H45.9631L41.4807 31.2346H43.4595L44.6038 27.9394H49.3357L50.4714 31.2346ZM46.9009 21.0738H47.0472L48.8453 26.3219H45.0942L46.9009 21.0738Z" fill="#FEFEFE"/>
<path d="M42.6794 9.45483V15.4438H44.8418C46.6265 15.4438 47.6599 14.344 47.6599 12.4307C47.6599 10.5464 46.6182 9.45483 44.8418 9.45483H42.6794ZM43.6091 10.3015H44.738C45.979 10.3015 46.7136 11.0901 46.7136 12.4431C46.7136 13.8169 45.9915 14.5972 44.738 14.5972H43.6091V10.3015Z" fill="#FEFEFE"/>
<path d="M50.825 15.531C52.1448 15.531 52.9542 14.647 52.9542 13.1819C52.9542 11.7251 52.1407 10.8369 50.825 10.8369C49.5052 10.8369 48.6917 11.7251 48.6917 13.1819C48.6917 14.647 49.501 15.531 50.825 15.531ZM50.825 14.7383C50.0489 14.7383 49.6131 14.1697 49.6131 13.1819C49.6131 12.2024 50.0489 11.6296 50.825 11.6296C51.597 11.6296 52.0369 12.2024 52.0369 13.1819C52.0369 14.1655 51.597 14.7383 50.825 14.7383Z" fill="#FEFEFE"/>
<path d="M59.8463 10.9241H58.954L58.1488 14.373H58.0782L57.1485 10.9241H56.2936L55.3639 14.373H55.2975L54.4881 10.9241H53.5833L54.8285 15.4438H55.7457L56.6754 12.1152H56.7459L57.6798 15.4438H58.6053L59.8463 10.9241Z" fill="#FEFEFE"/>
<path d="M60.8739 15.4438H61.7663V12.8C61.7663 12.0945 62.1854 11.6545 62.8454 11.6545C63.5053 11.6545 63.8207 12.0156 63.8207 12.7419V15.4438H64.713V12.5178C64.713 11.4429 64.1569 10.8369 63.1483 10.8369C62.4677 10.8369 62.0194 11.1399 61.7995 11.6421H61.7331V10.9241H60.8739V15.4438Z" fill="#FEFEFE"/>
<path d="M66.1184 15.4438H67.0107V9.16016H66.1184V15.4438Z" fill="#FEFEFE"/>
<path d="M70.3667 15.531C71.6865 15.531 72.4958 14.647 72.4958 13.1819C72.4958 11.7251 71.6824 10.8369 70.3667 10.8369C69.0469 10.8369 68.2334 11.7251 68.2334 13.1819C68.2334 14.647 69.0427 15.531 70.3667 15.531ZM70.3667 14.7383C69.5906 14.7383 69.1548 14.1697 69.1548 13.1819C69.1548 12.2024 69.5906 11.6296 70.3667 11.6296C71.1387 11.6296 71.5786 12.2024 71.5786 13.1819C71.5786 14.1655 71.1387 14.7383 70.3667 14.7383Z" fill="#FEFEFE"/>
<path d="M75.1546 14.7673C74.669 14.7673 74.3162 14.5308 74.3162 14.124C74.3162 13.7256 74.5984 13.5139 75.221 13.4724L76.325 13.4019V13.7795C76.325 14.3398 75.827 14.7673 75.1546 14.7673ZM74.9263 15.5186C75.5198 15.5186 76.0137 15.2612 76.2835 14.8088H76.354V15.4438H77.2132V12.356C77.2132 11.4014 76.574 10.8369 75.441 10.8369C74.4158 10.8369 73.6854 11.335 73.594 12.1111H74.4573C74.5569 11.7915 74.9014 11.6089 75.3995 11.6089C76.0096 11.6089 76.325 11.8787 76.325 12.356V12.7461L75.1006 12.8167C74.0257 12.8831 73.4197 13.3521 73.4197 14.1655C73.4197 14.9915 74.0547 15.5186 74.9263 15.5186Z" fill="#FEFEFE"/>
<path d="M80.2413 15.5186C80.8639 15.5186 81.391 15.2239 81.6607 14.73H81.7313V15.4438H82.5863V9.16016H81.6939V11.6421H81.6275C81.3827 11.144 80.8597 10.8494 80.2413 10.8494C79.0999 10.8494 78.3653 11.7542 78.3653 13.1819C78.3653 14.6138 79.0916 15.5186 80.2413 15.5186ZM80.4945 11.6504C81.2416 11.6504 81.7105 12.2439 81.7105 13.186C81.7105 14.1323 81.2457 14.7175 80.4945 14.7175C79.7391 14.7175 79.2867 14.1406 79.2867 13.1819C79.2867 12.2314 79.7433 11.6504 80.4945 11.6504Z" fill="#FEFEFE"/>
<path d="M88.3728 15.531C89.6926 15.531 90.5019 14.647 90.5019 13.1819C90.5019 11.7251 89.6884 10.8369 88.3728 10.8369C87.0529 10.8369 86.2395 11.7251 86.2395 13.1819C86.2395 14.647 87.0488 15.531 88.3728 15.531ZM88.3728 14.7383C87.5966 14.7383 87.1608 14.1697 87.1608 13.1819C87.1608 12.2024 87.5966 11.6296 88.3728 11.6296C89.1447 11.6296 89.5847 12.2024 89.5847 13.1819C89.5847 14.1655 89.1447 14.7383 88.3728 14.7383Z" fill="#FEFEFE"/>
<path d="M91.6831 15.4438H92.5754V12.8C92.5754 12.0945 92.9946 11.6545 93.6545 11.6545C94.3145 11.6545 94.6299 12.0156 94.6299 12.7419V15.4438H95.5222V12.5178C95.5222 11.4429 94.9661 10.8369 93.9575 10.8369C93.2769 10.8369 92.8286 11.1399 92.6086 11.6421H92.5422V10.9241H91.6831V15.4438Z" fill="#FEFEFE"/>
<path d="M99.6319 9.79932V10.9448H98.9139V11.696H99.6319V14.2485C99.6319 15.1201 100.026 15.4688 101.018 15.4688C101.192 15.4688 101.358 15.448 101.504 15.4231V14.6802C101.379 14.6926 101.3 14.7009 101.163 14.7009C100.719 14.7009 100.524 14.4934 100.524 14.0203V11.696H101.504V10.9448H100.524V9.79932H99.6319Z" fill="#FEFEFE"/>
<path d="M102.702 15.4438H103.594V12.8042C103.594 12.1194 104.001 11.6587 104.731 11.6587C105.362 11.6587 105.698 12.0239 105.698 12.7461V15.4438H106.59V12.5261C106.59 11.4512 105.997 10.8411 105.034 10.8411C104.353 10.8411 103.876 11.144 103.656 11.6504H103.586V9.16016H102.702V15.4438Z" fill="#FEFEFE"/>
<path d="M109.81 11.5964C110.469 11.5964 110.901 12.0571 110.922 12.7668H108.639C108.689 12.0613 109.15 11.5964 109.81 11.5964ZM110.918 14.2236C110.752 14.5764 110.382 14.7715 109.843 14.7715C109.129 14.7715 108.668 14.2693 108.639 13.4766V13.4268H111.831V13.1155C111.831 11.696 111.071 10.8369 109.814 10.8369C108.539 10.8369 107.73 11.7542 107.73 13.1985C107.73 14.6428 108.523 15.531 109.818 15.531C110.851 15.531 111.573 15.033 111.777 14.2236H110.918Z" fill="#FEFEFE"/>
<path d="M31.7973 21.0452C31.819 19.3642 32.7217 17.7736 34.1539 16.8931C33.2504 15.6028 31.7371 14.7847 30.1627 14.7355C28.4835 14.5592 26.8555 15.7403 25.9998 15.7403C25.1275 15.7403 23.81 14.753 22.3913 14.7822C20.5421 14.8419 18.8181 15.8933 17.9184 17.51C15.9844 20.8584 17.427 25.7795 19.2796 28.4861C20.2065 29.8115 21.2898 31.2919 22.7072 31.2394C24.0943 31.1819 24.6123 30.3549 26.2866 30.3549C27.9454 30.3549 28.4314 31.2394 29.8776 31.206C31.366 31.1819 32.3038 29.8748 33.1981 28.5369C33.8641 27.5925 34.3766 26.5488 34.7166 25.4444C32.9674 24.7046 31.7994 22.9443 31.7973 21.0452Z" fill="#FEFEFE"/>
<path d="M29.0656 12.9555C29.8772 11.9813 30.277 10.7291 30.1802 9.46484C28.9403 9.59506 27.7951 10.1876 26.9726 11.1245C26.1683 12.0398 25.7497 13.2699 25.8289 14.4858C27.0692 14.4986 28.2885 13.9221 29.0656 12.9555Z" fill="#FEFEFE"/>
</svg>
