<svg width="135" height="41" viewBox="0 0 135 41" fill="none" xmlns="http://www.w3.org/2000/svg">
<rect x="0.5" y="1.24414" width="134" height="39" rx="7.5" fill="black"/>
<rect x="0.5" y="1.24414" width="134" height="39" rx="7.5" stroke="#999999"/>
<path d="M68.136 22.495C65.784 22.495 63.867 24.284 63.867 26.748C63.867 29.197 65.784 31.001 68.136 31.001C70.489 31.001 72.406 29.197 72.406 26.748C72.405 24.284 70.488 22.495 68.136 22.495ZM68.136 29.327C66.847 29.327 65.736 28.264 65.736 26.749C65.736 25.218 66.848 24.171 68.136 24.171C69.425 24.171 70.536 25.218 70.536 26.749C70.536 28.263 69.425 29.327 68.136 29.327ZM58.822 22.495C56.47 22.495 54.553 24.284 54.553 26.748C54.553 29.197 56.47 31.001 58.822 31.001C61.175 31.001 63.092 29.197 63.092 26.748C63.092 24.284 61.175 22.495 58.822 22.495ZM58.822 29.327C57.533 29.327 56.422 28.264 56.422 26.749C56.422 25.218 57.534 24.171 58.822 24.171C60.111 24.171 61.222 25.218 61.222 26.749C61.223 28.263 60.111 29.327 58.822 29.327ZM47.744 23.801V25.605H52.062C51.933 26.62 51.595 27.361 51.079 27.876C50.451 28.504 49.468 29.197 47.744 29.197C45.086 29.197 43.008 27.054 43.008 24.396C43.008 21.738 45.086 19.595 47.744 19.595C49.178 19.595 50.225 20.159 50.998 20.884L52.271 19.611C51.191 18.58 49.758 17.791 47.744 17.791C44.103 17.791 41.042 20.755 41.042 24.396C41.042 28.037 44.103 31.001 47.744 31.001C49.709 31.001 51.192 30.356 52.351 29.148C53.543 27.956 53.914 26.28 53.914 24.927C53.914 24.509 53.882 24.122 53.817 23.8H47.744V23.801ZM93.052 25.202C92.698 24.252 91.618 22.495 89.411 22.495C87.22 22.495 85.399 24.219 85.399 26.748C85.399 29.132 87.204 31.001 89.62 31.001C91.569 31.001 92.697 29.809 93.165 29.116L91.715 28.149C91.232 28.858 90.571 29.325 89.62 29.325C88.67 29.325 87.993 28.89 87.558 28.036L93.245 25.684L93.052 25.202ZM87.252 26.62C87.204 24.976 88.525 24.139 89.476 24.139C90.217 24.139 90.845 24.51 91.055 25.041L87.252 26.62ZM82.629 30.744H84.497V18.243H82.629V30.744ZM79.567 23.446H79.503C79.084 22.946 78.278 22.495 77.264 22.495C75.137 22.495 73.188 24.364 73.188 26.765C73.188 29.149 75.137 31.002 77.264 31.002C78.279 31.002 79.084 30.551 79.503 30.036H79.567V30.648C79.567 32.275 78.697 33.145 77.296 33.145C76.152 33.145 75.443 32.324 75.153 31.631L73.526 32.308C73.993 33.435 75.233 34.821 77.296 34.821C79.487 34.821 81.34 33.532 81.34 30.39V22.754H79.568V23.446H79.567ZM77.425 29.327C76.136 29.327 75.057 28.247 75.057 26.765C75.057 25.266 76.136 24.171 77.425 24.171C78.697 24.171 79.696 25.266 79.696 26.765C79.696 28.247 78.697 29.327 77.425 29.327ZM101.806 18.243H97.335V30.744H99.2V26.008H101.805C103.873 26.008 105.907 24.511 105.907 22.126C105.907 19.741 103.874 18.243 101.806 18.243ZM101.854 24.268H99.2V19.983H101.854C103.249 19.983 104.041 21.138 104.041 22.126C104.041 23.094 103.249 24.268 101.854 24.268ZM113.386 22.473C112.035 22.473 110.636 23.068 110.057 24.387L111.713 25.078C112.067 24.387 112.727 24.161 113.418 24.161C114.383 24.161 115.364 24.74 115.38 25.769V25.898C115.042 25.705 114.318 25.416 113.434 25.416C111.649 25.416 109.831 26.397 109.831 28.23C109.831 29.903 111.295 30.98 112.935 30.98C114.189 30.98 114.881 30.417 115.315 29.757H115.379V30.722H117.181V25.929C117.182 23.711 115.524 22.473 113.386 22.473ZM113.16 29.324C112.55 29.324 111.697 29.018 111.697 28.262C111.697 27.297 112.759 26.927 113.676 26.927C114.495 26.927 114.882 27.104 115.38 27.345C115.235 28.504 114.238 29.324 113.16 29.324ZM123.743 22.746L121.604 28.166H121.54L119.32 22.746H117.31L120.639 30.321L118.741 34.535H120.687L125.818 22.746H123.743ZM106.937 30.744H108.802V18.243H106.937V30.744Z" fill="#FEFEFE"/>
<path d="M47.418 10.9873C47.418 11.8253 47.1701 12.4923 46.673 12.9903C46.109 13.5823 45.3731 13.8783 44.4691 13.8783C43.6031 13.8783 42.8661 13.5783 42.2611 12.9783C41.6551 12.3773 41.3521 11.6333 41.3521 10.7453C41.3521 9.85633 41.6551 9.11233 42.2611 8.51233C42.8661 7.91133 43.6031 7.61133 44.4691 7.61133C44.8991 7.61133 45.3101 7.69533 45.7001 7.86233C46.0911 8.03033 46.404 8.25333 46.6381 8.53233L46.111 9.06033C45.714 8.58533 45.167 8.34833 44.468 8.34833C43.836 8.34833 43.29 8.57033 42.829 9.01433C42.368 9.45833 42.1381 10.0353 42.1381 10.7443C42.1381 11.4533 42.368 12.0303 42.829 12.4743C43.29 12.9183 43.836 13.1403 44.468 13.1403C45.138 13.1403 45.6971 12.9173 46.1441 12.4703C46.4341 12.1793 46.602 11.7743 46.647 11.2553H44.468V10.5343H47.375C47.405 10.6913 47.418 10.8423 47.418 10.9873Z" fill="#FEFEFE"/>
<path d="M52.0281 8.48138H49.2961V10.3834H51.7601V11.1044H49.2961V13.0064H52.0281V13.7444H48.5251V7.74438H52.0281V8.48138Z" fill="#FEFEFE"/>
<path d="M55.279 13.7444H54.508V8.48138H52.832V7.74438H56.955V8.48138H55.279V13.7444Z" fill="#FEFEFE"/>
<path d="M59.938 13.7444V7.74438H60.709V13.7444H59.938Z" fill="#FEFEFE"/>
<path d="M64.1281 13.7444H63.3572V8.48138H61.6812V7.74438H65.8042V8.48138H64.1281V13.7444Z" fill="#FEFEFE"/>
<path d="M73.6089 12.9694C73.0189 13.5754 72.2859 13.8784 71.4089 13.8784C70.5319 13.8784 69.7989 13.5754 69.2099 12.9694C68.6199 12.3634 68.3259 11.6214 68.3259 10.7444C68.3259 9.86738 68.6199 9.12537 69.2099 8.51937C69.7989 7.91337 70.5319 7.60938 71.4089 7.60938C72.2809 7.60938 73.0129 7.91437 73.6049 8.52337C74.1969 9.13237 74.4929 9.87238 74.4929 10.7444C74.4929 11.6214 74.1979 12.3634 73.6089 12.9694ZM69.7789 12.4664C70.2229 12.9164 70.7659 13.1404 71.4089 13.1404C72.0519 13.1404 72.5959 12.9154 73.0389 12.4664C73.4829 12.0164 73.7059 11.4424 73.7059 10.7444C73.7059 10.0464 73.4829 9.47238 73.0389 9.02238C72.5959 8.57238 72.0519 8.34838 71.4089 8.34838C70.7659 8.34838 70.2229 8.57338 69.7789 9.02238C69.3359 9.47238 69.1129 10.0464 69.1129 10.7444C69.1129 11.4424 69.3359 12.0164 69.7789 12.4664Z" fill="#FEFEFE"/>
<path d="M75.5749 13.7444V7.74438H76.513L79.429 12.4114H79.4619L79.429 11.2554V7.74438H80.1999V13.7444H79.3949L76.344 8.85039H76.3109L76.344 10.0064V13.7444H75.5749Z" fill="#FEFEFE"/>
<path d="M47.418 10.9873C47.418 11.8253 47.1701 12.4923 46.673 12.9903C46.109 13.5823 45.3731 13.8783 44.4691 13.8783C43.6031 13.8783 42.8661 13.5783 42.2611 12.9783C41.6551 12.3773 41.3521 11.6333 41.3521 10.7453C41.3521 9.85633 41.6551 9.11233 42.2611 8.51233C42.8661 7.91133 43.6031 7.61133 44.4691 7.61133C44.8991 7.61133 45.3101 7.69533 45.7001 7.86233C46.0911 8.03033 46.404 8.25333 46.6381 8.53233L46.111 9.06033C45.714 8.58533 45.167 8.34833 44.468 8.34833C43.836 8.34833 43.29 8.57033 42.829 9.01433C42.368 9.45833 42.1381 10.0353 42.1381 10.7443C42.1381 11.4533 42.368 12.0303 42.829 12.4743C43.29 12.9183 43.836 13.1403 44.468 13.1403C45.138 13.1403 45.6971 12.9173 46.1441 12.4703C46.4341 12.1793 46.602 11.7743 46.647 11.2553H44.468V10.5343H47.375C47.405 10.6913 47.418 10.8423 47.418 10.9873Z" stroke="#FEFEFE" stroke-width="0.2" stroke-miterlimit="10"/>
<path d="M52.0281 8.48138H49.2961V10.3834H51.7601V11.1044H49.2961V13.0064H52.0281V13.7444H48.5251V7.74438H52.0281V8.48138Z" stroke="#FEFEFE" stroke-width="0.2" stroke-miterlimit="10"/>
<path d="M55.279 13.7444H54.508V8.48138H52.832V7.74438H56.955V8.48138H55.279V13.7444Z" stroke="#FEFEFE" stroke-width="0.2" stroke-miterlimit="10"/>
<path d="M59.938 13.7444V7.74438H60.709V13.7444H59.938Z" stroke="#FEFEFE" stroke-width="0.2" stroke-miterlimit="10"/>
<path d="M64.1281 13.7444H63.3572V8.48138H61.6812V7.74438H65.8042V8.48138H64.1281V13.7444Z" stroke="#FEFEFE" stroke-width="0.2" stroke-miterlimit="10"/>
<path d="M73.6089 12.9694C73.0189 13.5754 72.2859 13.8784 71.4089 13.8784C70.5319 13.8784 69.7989 13.5754 69.2099 12.9694C68.6199 12.3634 68.3259 11.6214 68.3259 10.7444C68.3259 9.86738 68.6199 9.12537 69.2099 8.51937C69.7989 7.91337 70.5319 7.60938 71.4089 7.60938C72.2809 7.60938 73.0129 7.91437 73.6049 8.52337C74.1969 9.13237 74.4929 9.87238 74.4929 10.7444C74.4929 11.6214 74.1979 12.3634 73.6089 12.9694ZM69.7789 12.4664C70.2229 12.9164 70.7659 13.1404 71.4089 13.1404C72.0519 13.1404 72.5959 12.9154 73.0389 12.4664C73.4829 12.0164 73.7059 11.4424 73.7059 10.7444C73.7059 10.0464 73.4829 9.47238 73.0389 9.02238C72.5959 8.57238 72.0519 8.34838 71.4089 8.34838C70.7659 8.34838 70.2229 8.57338 69.7789 9.02238C69.3359 9.47238 69.1129 10.0464 69.1129 10.7444C69.1129 11.4424 69.3359 12.0164 69.7789 12.4664Z" stroke="#FEFEFE" stroke-width="0.2" stroke-miterlimit="10"/>
<path d="M75.5749 13.7444V7.74438H76.513L79.429 12.4114H79.4619L79.429 11.2554V7.74438H80.1999V13.7444H79.3949L76.344 8.85039H76.3109L76.344 10.0064V13.7444H75.5749Z" stroke="#FEFEFE" stroke-width="0.2" stroke-miterlimit="10"/>
<g filter="url(#filter0_ii_368_5392)">
<path d="M10.436 8.28198C10.145 8.58998 9.97302 9.06799 9.97302 9.68699V31.803C9.97302 32.423 10.145 32.9 10.436 33.208L10.51 33.28L22.899 20.891V20.745V20.599L10.51 8.20898L10.436 8.28198Z" fill="url(#paint0_linear_368_5392)"/>
<path d="M27.028 25.0217L22.899 20.8907V20.7447V20.5987L27.029 16.4688L27.122 16.5217L32.015 19.3018C33.412 20.0958 33.412 21.3947 32.015 22.1897L27.122 24.9698L27.028 25.0217Z" fill="url(#paint1_linear_368_5392)"/>
<g filter="url(#filter1_i_368_5392)">
<path d="M27.122 24.9691L22.898 20.7451L10.436 33.2081C10.896 33.6961 11.657 33.7561 12.514 33.2701L27.122 24.9691Z" fill="url(#paint2_linear_368_5392)"/>
</g>
<path d="M27.122 16.5208L12.514 8.22084C11.657 7.73384 10.896 7.79484 10.436 8.28284L22.899 20.7458L27.122 16.5208Z" fill="url(#paint3_linear_368_5392)"/>
</g>
<defs>
<filter id="filter0_ii_368_5392" x="9.97302" y="7.88477" width="23.0897" height="25.7207" filterUnits="userSpaceOnUse" color-interpolation-filters="sRGB">
<feFlood flood-opacity="0" result="BackgroundImageFix"/>
<feBlend mode="normal" in="SourceGraphic" in2="BackgroundImageFix" result="shape"/>
<feColorMatrix in="SourceAlpha" type="matrix" values="0 0 0 0 0 0 0 0 0 0 0 0 0 0 0 0 0 0 127 0" result="hardAlpha"/>
<feOffset dy="-0.15"/>
<feComposite in2="hardAlpha" operator="arithmetic" k2="-1" k3="1"/>
<feColorMatrix type="matrix" values="0 0 0 0 0 0 0 0 0 0 0 0 0 0 0 0 0 0 0.12 0"/>
<feBlend mode="normal" in2="shape" result="effect1_innerShadow_368_5392"/>
<feColorMatrix in="SourceAlpha" type="matrix" values="0 0 0 0 0 0 0 0 0 0 0 0 0 0 0 0 0 0 127 0" result="hardAlpha"/>
<feOffset dy="0.15"/>
<feComposite in2="hardAlpha" operator="arithmetic" k2="-1" k3="1"/>
<feColorMatrix type="matrix" values="0 0 0 0 1 0 0 0 0 1 0 0 0 0 1 0 0 0 0.25 0"/>
<feBlend mode="normal" in2="effect1_innerShadow_368_5392" result="effect2_innerShadow_368_5392"/>
</filter>
<filter id="filter1_i_368_5392" x="10.436" y="20.7451" width="16.686" height="12.8604" filterUnits="userSpaceOnUse" color-interpolation-filters="sRGB">
<feFlood flood-opacity="0" result="BackgroundImageFix"/>
<feBlend mode="normal" in="SourceGraphic" in2="BackgroundImageFix" result="shape"/>
<feColorMatrix in="SourceAlpha" type="matrix" values="0 0 0 0 0 0 0 0 0 0 0 0 0 0 0 0 0 0 127 0" result="hardAlpha"/>
<feOffset dy="-0.15"/>
<feComposite in2="hardAlpha" operator="arithmetic" k2="-1" k3="1"/>
<feColorMatrix type="matrix" values="0 0 0 0 0 0 0 0 0 0 0 0 0 0 0 0 0 0 0.08 0"/>
<feBlend mode="normal" in2="shape" result="effect1_innerShadow_368_5392"/>
</filter>
<linearGradient id="paint0_linear_368_5392" x1="21.8008" y1="9.45298" x2="5.01882" y2="26.235" gradientUnits="userSpaceOnUse">
<stop stop-color="#00A0FF"/>
<stop offset="0.0066" stop-color="#00A1FF"/>
<stop offset="0.2601" stop-color="#00BEFF"/>
<stop offset="0.5122" stop-color="#00D2FF"/>
<stop offset="0.7604" stop-color="#00DFFF"/>
<stop offset="1" stop-color="#00E3FF"/>
</linearGradient>
<linearGradient id="paint1_linear_368_5392" x1="33.8335" y1="20.7448" x2="9.63765" y2="20.7448" gradientUnits="userSpaceOnUse">
<stop stop-color="#FFE000"/>
<stop offset="0.4087" stop-color="#FFBD00"/>
<stop offset="0.7754" stop-color="#FFA500"/>
<stop offset="1" stop-color="#FF9C00"/>
</linearGradient>
<linearGradient id="paint2_linear_368_5392" x1="24.8281" y1="23.039" x2="2.06964" y2="45.7975" gradientUnits="userSpaceOnUse">
<stop stop-color="#FF3A44"/>
<stop offset="1" stop-color="#C31162"/>
</linearGradient>
<linearGradient id="paint3_linear_368_5392" x1="7.29743" y1="0.920641" x2="17.4597" y2="11.0829" gradientUnits="userSpaceOnUse">
<stop stop-color="#32A071"/>
<stop offset="0.0685" stop-color="#2DA771"/>
<stop offset="0.4762" stop-color="#15CF74"/>
<stop offset="0.8009" stop-color="#06E775"/>
<stop offset="1" stop-color="#00F076"/>
</linearGradient>
</defs>
</svg>
